# xmcd CD database file
#
# Track frame offsets:
#	150
#	13537
#	24847
#	36242
#	49270
#	60537
#	74090
#	85967
#	98367
#	110862
#
# Disc length: 1605 seconds
#
# Revision: 0
# Processed by: cddbd v1.4PL0 Copyright (c) Steve Scherf et al.
# Submitted via: CDex 1.50beta10
#
DISCID=7f06430a
DTITLE=John Lee Hokker - Golden Legends
DYEAR=1900
DGENRE=Blues
TTITLE0=Trouble Blues
TTITLE1=Hard Headed Woman
TTITLE2=Little Wheel
TTITLE3=Baby Lee
TTITLE4=Boom Boom
TTITLE5=Road Is So Rough
TTITLE6=Whisky and Wimmen
TTITLE7=Hobo Blues
TTITLE8=I'm So Excited
TTITLE9=Onions
EXTD=
EXTT0=
EXTT1=
EXTT2=
EXTT3=
EXTT4=
EXTT5=
EXTT6=
EXTT7=
EXTT8=
EXTT9=
PLAYORDER=
